# xmcd
#
# Track frame offsets: 
#        150
#        10334
#        20546
#        31796
#        44195
#        57834
#        69132
#        80214
#        92780
#        102922
#        113579
#        124947
#        135855
#        145454
#        156341
#        168503
#        179955
#        192842
#        203862
#        215369
#        226514
#        237332
#        250170
#        261893
#
# Disc length: 3627 seconds
#
# Revision: 0
# Processed by: cddbd v1.5.2PL0 Copyright (c) Steve Scherf et al.
# Submitted via: ExactAudioCopy v1.0b1
#
DISCID=540e2918
DTITLE=Patsy Cline - From Church To Courtroom
DYEAR=2010
DGENRE=Country
TTITLE0=How Can I Face Tomorrow
TTITLE1=He Will Do For You
TTITLE2=Crazy Dreams
TTITLE3=Fingerprints
TTITLE4=A Church, A Courtroom and Then Goodbye
TTITLE5=The Heart You Break May Be Your Own
TTITLE6=Hungry For Love
TTITLE7=Yes I Understand
TTITLE8=Pick Me Up On Your Way Down
TTITLE9=I Cried All The Way To The Alter
TTITLE10=Lonely Street
TTITLE11=A Stranger In My Arms
TTITLE12=I'm Blue Again
TTITLE13=I Can't Forget
TTITLE14=A Poor Man's Roses (Or A Rich Man's Gold)
TTITLE15=I've Loved and Lost Again
TTITLE16=If I Could See The World (Through The Eyes Of A Child)
TTITLE17=Hidin' Out
TTITLE18=Walking After Midnight
TTITLE19=If I Go To Church On Sunday
TTITLE20=I Can See An Angel
TTITLE21=Life's Railway To Heaven
TTITLE22=Six More Miles
TTITLE23=Three Cigarettes In An Ashtray
EXTD=
EXTT0=
EXTT1=
EXTT2=
EXTT3=
EXTT4=
EXTT5=
EXTT6=
EXTT7=
EXTT8=
EXTT9=
EXTT10=
EXTT11=
EXTT12=
EXTT13=
EXTT14=
EXTT15=
EXTT16=
EXTT17=
EXTT18=
EXTT19=
EXTT20=
EXTT21=
EXTT22=
EXTT23=
PLAYORDER=
